# xmcd
#
# Track frame offsets: 
#        150
#        105523
#        150927
#
# Disc length: 3611 seconds
#
# Revision: 0
# Processed by: cddbd v1.5.2PL0 Copyright (c) Steve Scherf et al.
# Submitted via: ExactAudioCopy v1.0b1
#
DISCID=120e1903
DTITLE=Mravinsky - Bruckner Symphonie No.9
DYEAR=2010
DGENRE=Classical
TTITLE0=Feierlich, Misterioso
TTITLE1=Scherzo. Bewegt, lebhaft - Trio. Schnell 
TTITLE2=Adagio. Langsam, feierlich
EXTD=
EXTT0=
EXTT1=
EXTT2=
PLAYORDER=
